<?xml version="1.0" encoding="UTF-8" standalone="no"?>
<!-- Generator: Adobe Illustrator 16.0.0, SVG Export Plug-In . SVG Version: 6.00 Build 0)  -->

<svg
   xmlns:dc="http://purl.org/dc/elements/1.1/"
   xmlns:cc="http://creativecommons.org/ns#"
   xmlns:rdf="http://www.w3.org/1999/02/22-rdf-syntax-ns#"
   xmlns:svg="http://www.w3.org/2000/svg"
   xmlns="http://www.w3.org/2000/svg"
   xmlns:sodipodi="http://sodipodi.sourceforge.net/DTD/sodipodi-0.dtd"
   xmlns:inkscape="http://www.inkscape.org/namespaces/inkscape"
   version="1.1"
   id="Calque_1"
   x="0px"
   y="0px"
   width="1500"
   height="1550"
   viewBox="0 0 1500 1550"
   enable-background="new 0 0 1515 1277.08"
   xml:space="preserve"
   inkscape:version="0.48.5 r10040"
   sodipodi:docname="Canal Algérie logo.svg"><title
   id="title3080">Canal Algérie logo (Public Domain)</title><metadata
   id="metadata46"><rdf:RDF><cc:Work
       rdf:about=""><dc:format>image/svg+xml</dc:format><dc:type
         rdf:resource="http://purl.org/dc/dcmitype/StillImage" /><dc:title>Canal Algérie logo (Public Domain)</dc:title><cc:license
         rdf:resource="http://creativecommons.org/licenses/publicdomain/" /></cc:Work><cc:License
       rdf:about="http://creativecommons.org/licenses/publicdomain/"><cc:permits
         rdf:resource="http://creativecommons.org/ns#Reproduction" /><cc:permits
         rdf:resource="http://creativecommons.org/ns#Distribution" /><cc:permits
         rdf:resource="http://creativecommons.org/ns#DerivativeWorks" /></cc:License></rdf:RDF></metadata><defs
   id="defs44" /><sodipodi:namedview
   pagecolor="#ffffff"
   bordercolor="#666666"
   borderopacity="1"
   objecttolerance="10"
   gridtolerance="10"
   guidetolerance="10"
   inkscape:pageopacity="0"
   inkscape:pageshadow="2"
   inkscape:window-width="1024"
   inkscape:window-height="712"
   id="namedview42"
   showgrid="false"
   inkscape:zoom="0.31"
   inkscape:cx="787.74714"
   inkscape:cy="759.19801"
   inkscape:window-x="-4"
   inkscape:window-y="26"
   inkscape:window-maximized="1"
   inkscape:current-layer="Calque_1" />
<g
   id="g3045"
   transform="matrix(4.1116045,0,0,3.4853908,-417.02891,1226.9616)"
   style="fill:#000000"><g
   style="font-size:90px;font-style:italic;font-weight:normal;text-align:start;text-anchor:start;fill:#000000;font-family:Franklin Gothic Demi"
   id="text3047"><path
     d="m 162.26836,82.448624 -14.28223,0 -1.97754,-13.183594 -19.99512,0 -5.80078,13.183594 -13.00781,0 28.52051,-59.985352 16.43554,0 z m -31.77246,-23.642578 14.10644,0 -3.55957,-23.994141 z"
     style="font-size:90px;font-style:italic;font-weight:normal;text-align:start;text-anchor:start;fill:#000000;font-family:Franklin Gothic Demi"
     id="path2998" /><path
     d="m 191.79961,22.463272 -8.12989,48.603516 23.59864,0 -1.88965,11.381836 -37.39746,0 10.01953,-59.985352 z"
     style="font-size:90px;font-style:italic;font-weight:normal;text-align:start;text-anchor:start;fill:#000000;font-family:Franklin Gothic Demi"
     id="path3000" /><path
     d="m 265.408,50.280655 -5.44921,32.607422 -5.625,0 -1.58204,-8.085938 c -4.21878,5.625002 -9.72659,8.437499 -16.52343,8.4375 -6.26955,-10e-7 -11.57961,-2.233885 -15.93018,-6.70166 -4.35059,-4.467763 -6.52588,-10.759261 -6.52588,-18.874512 0,-10.312464 2.76855,-18.962358 8.30567,-25.949707 5.53709,-6.987247 12.65622,-10.480895 21.35742,-10.480957 6.32808,6.2e-5 11.477,1.728575 15.44678,5.185547 3.96967,3.457084 6.48187,8.305712 7.53662,14.545899 l -12.91992,2.109375 c -1.05474,-7.148391 -4.43852,-10.722606 -10.15137,-10.722657 -3.51566,5.1e-5 -6.43069,1.369678 -8.74512,4.108887 -2.31448,2.739301 -4.00637,6.42338 -5.07568,11.052246 -1.06936,4.628937 -1.60403,8.481472 -1.60401,11.557617 -2e-5,3.632833 0.87157,6.679705 2.61475,9.140625 1.74314,2.46095 4.57761,3.691417 8.50342,3.691407 5.80074,1e-5 9.69722,-3.588853 11.68945,-10.766602 l -12.34863,0 1.80176,-10.854492 z"
     style="font-size:90px;font-style:italic;font-weight:normal;text-align:start;text-anchor:start;fill:#000000;font-family:Franklin Gothic Demi"
     id="path3002" /><path
     d="m 323.45976,22.463272 -1.93359,11.381836 -28.16895,0 -2.06543,12.304688 23.55469,0 -1.80176,10.854492 -23.59863,0 -2.3291,14.0625 28.69629,0 -1.9336,11.381836 -42.71484,0 10.01953,-59.985352 z"
     style="font-size:90px;font-style:italic;font-weight:normal;text-align:start;text-anchor:start;fill:#000000;font-family:Franklin Gothic Demi"
     id="path3004" /><path
     d="m 340.11504,58.586319 -3.99903,23.862305 -13.44726,0 10.01953,-59.985352 22.19238,0 c 5.59566,6e-5 9.90962,0.60797 12.9419,1.823731 3.03217,1.215877 5.41986,3.295953 7.16308,6.240234 1.74311,2.944385 2.61469,6.042526 2.61475,9.294434 -6e-5,3.486367 -1.04742,6.811559 -3.14209,9.975585 -2.09478,3.164092 -5.54448,5.376004 -10.34912,6.635743 l 7.4707,26.015625 -13.97461,0 -6.32812,-23.862305 z m 4.04296,-25.620117 -2.54882,15.205078 8.87695,0 c 3.4277,3.4e-5 5.95455,-0.227016 7.58057,-0.681152 1.62593,-0.454067 2.95894,-1.332972 3.99902,-2.636719 1.04,-1.303672 1.56001,-2.907675 1.56006,-4.812012 -5e-5,-2.490189 -0.79838,-4.291945 -2.39502,-5.405273 -1.59672,-1.113233 -4.25541,-1.669873 -7.97608,-1.669922 z"
     style="font-size:90px;font-style:italic;font-weight:normal;text-align:start;text-anchor:start;fill:#000000;font-family:Franklin Gothic Demi"
     id="path3006" /><path
     d="m 405.54961,22.463272 -10.01953,59.985352 -13.79883,0 10.01953,-59.985352 z"
     style="font-size:90px;font-style:italic;font-weight:normal;text-align:start;text-anchor:start;fill:#000000;font-family:Franklin Gothic Demi"
     id="path3008" /><path
     d="m 459.86601,22.463272 -1.93359,11.381836 -28.16895,0 -2.06543,12.304688 23.55469,0 -1.80176,10.854492 -23.59863,0 -2.3291,14.0625 28.69629,0 -1.9336,11.381836 -42.71484,0 10.01953,-59.985352 z"
     style="font-size:90px;font-style:italic;font-weight:normal;text-align:start;text-anchor:start;fill:#000000;font-family:Franklin Gothic Demi"
     id="path3010" /></g>

<g
   style="font-size:90px;font-style:italic;font-weight:normal;text-align:start;text-anchor:start;fill:#000000;font-family:Franklin Gothic Demi"
   id="text3049" />

</g><polygon
   points="851.17,648.34 617.84,13.75 840.34,13.75 1312.209,990.94 1006.27,990.94 957.21,862.09 700.13,862.09 700.18,648.75 "
   id="polygon3"
   transform="translate(49.573438,9.2281665)"
   style="fill:#eb2e16" />
<radialGradient
   id="SVGID_1_"
   cx="524.1897"
   cy="755.16022"
   r="161.7464"
   gradientUnits="userSpaceOnUse">
	<stop
   offset="0.0296"
   style="stop-color:#FFFFFF"
   id="stop6" />
	<stop
   offset="0.0998"
   style="stop-color:#E3EBF4"
   id="stop8" />
	<stop
   offset="0.3059"
   style="stop-color:#98B3D5"
   id="stop10" />
	<stop
   offset="0.49"
   style="stop-color:#5C87BD"
   id="stop12" />
	<stop
   offset="0.6454"
   style="stop-color:#3068AB"
   id="stop14" />
	<stop
   offset="0.7661"
   style="stop-color:#1654A0"
   id="stop16" />
	<stop
   offset="0.8374"
   style="stop-color:#0C4D9C"
   id="stop18" />
	<stop
   offset="0.9163"
   style="stop-color:#024698"
   id="stop20" />
</radialGradient>



<path
   d="m 630.9918,273.25833 97.21166,187.36459 c 0,0 -354.64308,94.0664 -311.35842,331.40113 44.93685,246.35315 334.73506,258.41005 334.73506,258.41005 l -69.9193,164.6185 c 0,0 -512.19948,-48.3204 -540.0299,-410.53981 C 113.7912,442.01762 630.9918,273.25833 630.9918,273.25833 z"
   id="path24"
   style="fill:#65c565"
   inkscape:connector-curvature="0" /><ellipse
   cx="524.19"
   cy="755.15997"
   rx="162.39999"
   ry="161.09"
   id="ellipse22"
   style="fill:url(#SVGID_1_)"
   sodipodi:cx="524.19"
   sodipodi:cy="755.15997"
   sodipodi:rx="162.39999"
   sodipodi:ry="161.09"
   transform="matrix(0.69446339,0,0,0.65501619,209.77838,263.92864)" /></svg>